<svg xmlns="http://www.w3.org/2000/svg" viewBox="0 0 141.32 138.42"><g id="Layer_2" data-name="Layer 2"><g id="Layer_3" data-name="Layer 3"><path d="M43.4,43.82a1.54,1.54,0,0,0-.74-1.06l-6.12-3.52-14-8.12A1.57,1.57,0,0,0,21.12,31a1.55,1.55,0,0,0-.9,1.05L3.47,100.5a1.55,1.55,0,0,0,.73,1.7l15.64,9a1.55,1.55,0,0,0,.78.21,1.63,1.63,0,0,0,.67-.15,1.54,1.54,0,0,0,.85-1.17L23.62,100a.75.75,0,0,1,.42-.58.81.81,0,0,1,.34-.08.73.73,0,0,1,.38.11l15,8.67a.78.78,0,0,1,.38.58l1.74,14.54a1.55,1.55,0,0,0,.76,1.15l14.75,8.52a1.54,1.54,0,0,0,.77.21,1.5,1.5,0,0,0,.89-.29,1.52,1.52,0,0,0,.63-1.54Zm.05,79.26L41.7,108.53a2.31,2.31,0,0,0-1.14-1.72l-15-8.68a2.33,2.33,0,0,0-1.15-.31,2.4,2.4,0,0,0-1,.23,2.32,2.32,0,0,0-1.28,1.75l-1.47,10.1L5,100.86l16.75-68.4,14.05,8.11,6.12,3.53,16.3,87.49Z"/><path d="M137.52,54a8.66,8.66,0,0,0-5.41-2.81,33.66,33.66,0,0,0,4.29-7.49,36.91,36.91,0,0,0,2.79-14.31c0-7-2-11.72-5.74-14.06l-.11-.1-.15-.09-24-13.94-.16-.08a7.76,7.76,0,0,0-.77-.37l-.09,0a7.81,7.81,0,0,0-.81-.29l-.09,0-.36,1.51c.23.07.46.15.68.24l.07,0c.22.09.43.2.7.34l.06,0,24,13.92.12.11.12.08c3.3,2,5,6.33,5,12.74A35.39,35.39,0,0,1,135,43.11a31.92,31.92,0,0,1-4.1,7.15,1.53,1.53,0,0,0-.19,1.53,1.51,1.51,0,0,0,1.23.93,7.14,7.14,0,0,1,4.48,2.34c2.23,2.36,3.36,6.08,3.38,11.07.05,16.63-7.4,29.37-22.14,37.88L89.12,120.48a.76.76,0,0,1-.39.1h-.17l-.13-.06-.16-.06a1.5,1.5,0,0,0-.71-.18A1.56,1.56,0,0,0,86,122.08a.78.78,0,0,1-.37.81L61.8,136.76h0l-.14.05-.11.05-.16,0h-.13l-.11,0-.07,0,0,0-.13-.06-20-11.55a.78.78,0,0,1-.38-.58l-1.74-14.54A1.55,1.55,0,0,0,38,108.9L27,102.51a1.55,1.55,0,0,0-.78-.21,1.63,1.63,0,0,0-.67.15,1.54,1.54,0,0,0-.85,1.17l-1.48,10.09a.75.75,0,0,1-.42.59.81.81,0,0,1-.34.08.73.73,0,0,1-.38-.11l-20.1-11.6a.77.77,0,0,1-.37-.85l17.88-73a1.21,1.21,0,0,0,0-.14.42.42,0,0,0,0-.09l.06-.09.05-.07.08-.07a.35.35,0,0,1,.09-.07l.11-.08L43.72,14.36a.76.76,0,0,1,.39-.1.72.72,0,0,1,.38.1l17,9.83a1.49,1.49,0,0,0,.77.21,1.55,1.55,0,0,0,1.54-1.55v-.13a1,1,0,0,0,0-.17v-.1a.73.73,0,0,0,0-.12v0l.1-.13,0-.06a.61.61,0,0,1,.16-.12L92.74,5.51c.42-.24.83-.48,1.22-.69l.27-.14.25-.13.66-.34,2.35-1.08.18-.07c.39-.16.79-.32,1.17-.45l.29-.1,1.14-.36.6-.16.18,0,.43-.1.89-.16h.09l.12,0c.29,0,.69-.08,1.11-.11h1.47l.59.07h.19l.13,0a7.71,7.71,0,0,1,.79.18L107.29.4c-.29-.08-.59-.15-.94-.22l-.12,0-.25,0c-.26,0-.53-.07-.72-.08L105,0h-1.15l-.31,0c-.44,0-.9.07-1.24.12l-.21,0-.93.17-.52.12-.16,0-.64.17c-.38.11-.76.22-1.24.39l-.31.1c-.41.15-.83.31-1.24.48l-.2.08-2.4,1.1-.73.38-.24.12-.28.15c-.42.22-.84.46-1.27.71L63.44,20.64A2.19,2.19,0,0,0,63,21a2.6,2.6,0,0,0-.25.33.83.83,0,0,0-.11.15,2.54,2.54,0,0,0-.16.38.87.87,0,0,0-.07.17,3.06,3.06,0,0,0,0,.32,2.4,2.4,0,0,0,0,.28h0v.2L45.26,13a2.23,2.23,0,0,0-1.15-.31A2.29,2.29,0,0,0,43,13L19.05,26.92A.71.71,0,0,0,19,27a1.86,1.86,0,0,0-.28.21l-.16.15c-.08.09-.15.19-.22.28l-.12.18a2.67,2.67,0,0,0-.14.36c0,.06-.05.11-.07.17a0,0,0,0,1,0,0L.07,101.45A2.3,2.3,0,0,0,1.16,104l20.1,11.61a2.33,2.33,0,0,0,1.15.31,2.24,2.24,0,0,0,1-.24,2.29,2.29,0,0,0,1.28-1.74l1.47-10.1,11.08,6.39L39,124.78a2.34,2.34,0,0,0,1.14,1.73l20.1,11.6.1,0,.09.06a2.41,2.41,0,0,0,.25.08l.17.06a2.51,2.51,0,0,0,.55.07,2.31,2.31,0,0,0,.64-.1l.2-.08a1.79,1.79,0,0,0,.32-.13l23.9-13.89a2.32,2.32,0,0,0,1.11-2.41h0l.24.1c.11,0,.21.1.32.13a2.32,2.32,0,0,0,.59.07,2.29,2.29,0,0,0,1.16-.31l28.52-16.46c15.25-8.81,23-22,22.91-39.23C141.3,60.73,140,56.65,137.52,54Z"/><path d="M24.05,30.24l16.16,9.33,3,1.72a1.52,1.52,0,0,0,1.54,0l2.93-1.7L64,30.08a1.53,1.53,0,0,0,.77-1.33A1.57,1.57,0,0,0,64,27.41l-19.14-11a1.52,1.52,0,0,0-1.54,0L24.05,27.58a1.52,1.52,0,0,0-.77,1.33A1.54,1.54,0,0,0,24.05,30.24Z"/><path d="M106.35,3.34l-.6-.13-.14,0h-.09l-.63-.07H104v.34h0V3.09h-.29a8.79,8.79,0,0,0-1.08.11h-.12l-.12,0-.12,0-.11,0-.71.15-.26.06-.3.07-.21.06c-.32.09-.65.19-1,.31l-.34.12q-.56.2-1.11.42l-.09,0L98,4.57l-2.15,1-.67.35-.5.26-1.19.67L68.44,21.32a1.53,1.53,0,0,0,0,2.66L84.8,33.49l2.92,1.7a1.55,1.55,0,0,0,.78.21,1.51,1.51,0,0,0,.77-.21l27.36-15.8,1.22-.68L119,18.1l0,0,.15-.07c.73-.37,1.39-.67,2-1l.16-.06.09,0,.15-.06.18-.07.68-.25.14-.06.06,0,.4-.14.12,0,.45-.15a1.52,1.52,0,0,0,1.08-1.29,1.55,1.55,0,0,0-.76-1.51L107.77,3.93l-.17-.09-.47-.23-.1,0c-.16-.06-.37-.14-.59-.2Z"/><path d="M123.76,17.78c-.63.21-1.21.42-1.77.65l-.08,0-2,.94-.1,0c-.76.39-1.52.8-2.37,1.28l-12.09,7L90,36.53a1.55,1.55,0,0,0-.77,1.34l.11,39,.11,39A1.55,1.55,0,0,0,91,117.36a1.51,1.51,0,0,0,.77-.21l25.07-14.47c14.42-8.33,21.41-20.29,21.37-36.55,0-4.59-1-8-3-10a5.61,5.61,0,0,0-4.34-1.89,12,12,0,0,0-5,1.34.8.8,0,0,1-.33.08.82.82,0,0,1-.41-.12.76.76,0,0,1-.36-.65v-.24a.76.76,0,0,1,.29-.6,28.85,28.85,0,0,0,8.48-11.5A33.67,33.67,0,0,0,136.1,29.4c0-6.11-1.56-10-4.61-11.68a6.81,6.81,0,0,0-1.2-.48,7.78,7.78,0,0,0-1.14-.21L129,17h-.13l-.8,0h-.52l-.33,0a12.35,12.35,0,0,0-1.3.18l-.19.05-.14,0-1.72.47Zm2.19,1,.24-.06a9.5,9.5,0,0,1,1.13-.15l.36,0H128l.74,0,.18,0a5.38,5.38,0,0,1,.92.16l0,0a4.47,4.47,0,0,1,.84.34h0c2.51,1.35,3.79,4.82,3.8,10.32a32.11,32.11,0,0,1-2.43,12.52,27.18,27.18,0,0,1-8,10.9,2.29,2.29,0,0,0-.86,1.8v.24a2.31,2.31,0,0,0,2.31,2.31,2.46,2.46,0,0,0,1-.22,10.4,10.4,0,0,1,4.37-1.2,4.1,4.1,0,0,1,3.21,1.4l0,0c1.68,1.76,2.53,4.77,2.55,9,0,15.66-6.7,27.17-20.6,35.2L91,115.81l-.11-39-.11-39,15.27-8.81,12.09-7,0,0c.76-.43,1.48-.82,2.25-1.21l.05,0,2-.94h0c.58-.24,1.14-.44,1.68-.61Z"/><path d="M106.32,60.29a2.23,2.23,0,0,0,1.15.31,2.29,2.29,0,0,0,1.16-.31l4.56-2.64a11.54,11.54,0,0,0,1.59-1.1,12,12,0,0,0,1.41-1.36,14.88,14.88,0,0,0,2.29-3.51,18.14,18.14,0,0,0,1.83-7.89c0-3-.79-5.36-2.34-6.85a5,5,0,0,0-3.5-1.43,7.32,7.32,0,0,0-3.64,1.11l-4.56,2.63a2.33,2.33,0,0,0-1.16,2l0,17A2.29,2.29,0,0,0,106.32,60.29Zm.72-19.7L111.61,38a5.81,5.81,0,0,1,2.86-.9,3.52,3.52,0,0,1,2.43,1c1.23,1.19,1.87,3.13,1.87,5.74A16.55,16.55,0,0,1,117.09,51a13.24,13.24,0,0,1-2,3.16,11.58,11.58,0,0,1-1.24,1.19,9.44,9.44,0,0,1-1.38,1L107.86,59a.76.76,0,0,1-.77,0,.79.79,0,0,1-.39-.67l0-17A.77.77,0,0,1,107,40.59Z"/><path d="M109,55.63a1.61,1.61,0,0,0,.77.2,1.51,1.51,0,0,0,.77-.21l1.11-.64a10,10,0,0,0,4-4.63,14.77,14.77,0,0,0,1.53-6.55c0-2.19-.48-3.75-1.41-4.64a2,2,0,0,0-1.41-.55,4.11,4.11,0,0,0-2,.68l-3.41,2a1.52,1.52,0,0,0-.77,1.33l0,11.7A1.55,1.55,0,0,0,109,55.63Zm4.15-15a2.86,2.86,0,0,1,1.26-.47.5.5,0,0,1,.35.12c.59.58.92,1.83.93,3.53a13.54,13.54,0,0,1-1.38,5.89,8.62,8.62,0,0,1-3.43,4l-1.11.64,0-11.7Z"/><path d="M116.84,70.3a2.4,2.4,0,0,0-1.39-.42,4.65,4.65,0,0,0-2.28.72L109.06,73a1.55,1.55,0,0,0-.77,1.34l0,15a1.57,1.57,0,0,0,.77,1.34,1.64,1.64,0,0,0,.77.2,1.51,1.51,0,0,0,.77-.21l1.82-1a11.86,11.86,0,0,0,4.41-5.14,17.38,17.38,0,0,0,1.76-6.1,20.09,20.09,0,0,0,.12-2.22c0-2.78-.61-4.7-1.79-5.71Zm.26,7.86a16,16,0,0,1-1.6,5.56,10.45,10.45,0,0,1-3.81,4.51l-1.82,1,0-15L114,71.94a3.11,3.11,0,0,1,1.5-.52.8.8,0,0,1,.51.15c.8.68,1.24,2.29,1.24,4.54A17.27,17.27,0,0,1,117.1,78.16Z"/><path d="M118.85,68a5.71,5.71,0,0,0-3.43-1.15,7.47,7.47,0,0,0-3.79,1.13l-5.27,3a2.32,2.32,0,0,0-1.16,2l.06,20.29a2.29,2.29,0,0,0,1.16,2,2.23,2.23,0,0,0,1.15.31,2.29,2.29,0,0,0,1.16-.31l5.27-3a14.91,14.91,0,0,0,5.62-6.42,21,21,0,0,0,2.21-9.72C121.82,72.37,120.86,69.66,118.85,68Zm-.61,17.16a13.43,13.43,0,0,1-5,5.78l-5.27,3a.79.79,0,0,1-.39.11.87.87,0,0,1-.39-.1.8.8,0,0,1-.38-.67L106.74,73a.77.77,0,0,1,.39-.67l5.27-3a6.13,6.13,0,0,1,3-.92,4.24,4.24,0,0,1,2.47.81c1.6,1.4,2.39,3.66,2.4,6.94A19.53,19.53,0,0,1,118.24,85.12Z"/><path d="M31.83,66.39h0a1.54,1.54,0,0,0-1.52,1.29l-2.6,16a1.53,1.53,0,0,0,.75,1.59l5.11,3a1.61,1.61,0,0,0,.77.2,1.45,1.45,0,0,0,.85-.26,1.55,1.55,0,0,0,.68-1.48L33.33,67.72A1.54,1.54,0,0,0,31.83,66.39Zm2.48,20.45-5.11-3,2.6-16Z"/><path d="M33.3,50.86l-.21-.12a2.33,2.33,0,0,0-1.15-.31,2.33,2.33,0,0,0-2.28,1.94L24.38,84.72A2.31,2.31,0,0,0,25.5,87.1l10.56,6.09a2.31,2.31,0,0,0,2.44-.08,2.32,2.32,0,0,0,1-2.22L34.43,52.56A2.31,2.31,0,0,0,33.3,50.86Zm4.35,41a.79.79,0,0,1-.82,0l-10.56-6.1A.78.78,0,0,1,25.9,85l5.28-32.35a.76.76,0,0,1,.43-.57.72.72,0,0,1,.71,0l.21.12a.8.8,0,0,1,.38.56L38,91.09A.77.77,0,0,1,37.65,91.83Z"/><g id="Layer_4" data-name="Layer 4"><path d="M84.23,120.76l-.62-3.35L76.3,78.23l-.12-.66L67.7,32.11A1.51,1.51,0,0,0,66.83,31a1.42,1.42,0,0,0-.64-.14,1.55,1.55,0,0,0-.78.21l-9.86,5.73L53.43,38l-5,2.92-2.64,1.54A1.53,1.53,0,0,0,45,44.09l5.3,28.43h0L55.25,99l.07.35,4.86,26.11,0,.12,1.33,7.18a1.55,1.55,0,0,0,.88,1.12s.07,0,.11,0a1.62,1.62,0,0,0,.53.11h.12a1.5,1.5,0,0,0,.65-.2l15.32-8.9,1.22-.71,3.12-1.81A1.54,1.54,0,0,0,84.23,120.76ZM46.54,43.81l2.63-1.53-2.46,2.46Zm.61,3.32,8.79-8.78,9.52-5.54.73-.39,1.34,7.19L49.17,58Zm2.47,13.23L68,42l2,10.85,0,0L51.64,71.2Zm2.47,13.23L70.45,55.23l2,10.83,0,0L54.11,84.43Zm2.46,13.23L72.91,68.46l2,10.75-.33.43-18,18ZM57,100.05,75.38,81.69l2,10.84L59,110.89Zm4.48,24.07-2-10.84L77.84,94.92l2,10.81,0,.06ZM78,123.73l-.19.17-14.74,8.56-1.11-6,18.36-18.36,1.78,9.55h0l.3,1.63Z"/></g><g id="Layer_5" data-name="Layer 5"><path d="M75.58,66,78,78.79l.08.42L80.4,91.79l.11.62,4.38,23.49a1.54,1.54,0,0,0,1.52,1.26h.14a1.54,1.54,0,0,0,1.4-1.54l0-12-.18-65.79A1.55,1.55,0,0,0,87,36.53l-16-9.3a1.51,1.51,0,0,0-.77-.21,1.54,1.54,0,0,0-1.52,1.82l1.83,9.8.13.72,2.44,13.08.08.42,2.39,12.79M70.18,28.56l6.57,3.82-4.94,4.94Zm2.08,11.15,6.29-6.29,7.64,4.44v1.51l-.14.07L74.38,51.11ZM74.83,53.5,86.2,42.13l0,12.85-.19.14-9.2,9.21Zm2.46,13.22,8.95-8.95,0,12.73-.22.21h0L79.3,77.47Zm2.45,13.14,6.55-6.55,0,12.55-.25.26v0h0l-4.33,4.34Zm2.42,13,4.17-4.17,0,12.69-2.21,2.2ZM84.61,106l1.77-1.76,0,11.41Z"/></g></g></g></svg>