<svg xmlns="http://www.w3.org/2000/svg" viewBox="0 0 1920 1920">
    <style>
        .st0{fill:#fff}.st1{fill:none;stroke:#231f20;stroke-width:50;stroke-linecap:round;stroke-linejoin:round;stroke-miterlimit:10}
    </style>
    <path class="st0" d="M1467.5 1005.5h-1015c-25.2 0-45.7 20.5-45.7 45.7v60.8h566.3c24.9 0 45.2 20.2 45.2 45.2 0 24.9-20.2 45.2-45.2 45.2H406.8v60.8c0 25.2 20.5 45.7 45.7 45.7h1015c25.2 0 45.7-20.5 45.7-45.7v-212c0-25.3-20.5-45.7-45.7-45.7zm-276 187.4c-19.8 0-35.8-16-35.8-35.8 0-19.8 16-35.8 35.8-35.8 19.7 0 35.8 16 35.8 35.8-.1 19.8-16.1 35.8-35.8 35.8zm151.9-.1c-19.7.9-36.5-14.3-37.4-34-.9-19.7 14.3-36.5 34.1-37.4 19.7-.9 36.5 14.3 37.4 34.1.8 19.7-14.4 36.4-34.1 37.3zM1467.5 217h-1015c-25.2 0-45.7 20.5-45.7 45.7v60.8h566.3c24.9 0 45.2 20.2 45.2 45.2 0 25-20.2 45.2-45.2 45.2H406.8v60.8c0 25.2 20.5 45.7 45.7 45.7h1015c25.2 0 45.7-20.5 45.7-45.7v-212c0-25.3-20.5-45.7-45.7-45.7zm-276 187.4c-19.8 0-35.8-16-35.8-35.8 0-19.7 16-35.8 35.8-35.8 19.7 0 35.8 16 35.8 35.8-.1 19.8-16.1 35.8-35.8 35.8zm151.9-.1c-19.7.9-36.5-14.3-37.4-34-.9-19.7 14.3-36.5 34.1-37.4 19.7-.9 36.5 14.3 37.4 34 .8 19.8-14.4 36.5-34.1 37.4zm124.1 206.9h-1015c-25.2 0-45.7 20.5-45.7 45.7v60.8h566.3c24.9 0 45.2 20.2 45.2 45.2 0 25-20.2 45.2-45.2 45.2H406.8v60.8c0 25.2 20.5 45.7 45.7 45.7h1015c25.2 0 45.7-20.5 45.7-45.7v-212c0-25.2-20.5-45.7-45.7-45.7zm-276 187.4c-19.8 0-35.8-16-35.8-35.8 0-19.7 16-35.8 35.8-35.8 19.7 0 35.8 16 35.8 35.8-.1 19.8-16.1 35.8-35.8 35.8zm151.9 0c-19.7.9-36.5-14.3-37.4-34-.9-19.7 14.3-36.5 34.1-37.4 19.7-.9 36.5 14.3 37.4 34 .8 19.7-14.4 36.5-34.1 37.4zm124.1 601.1h-1015c-25.2 0-45.7 20.5-45.7 45.7v60.8h566.3c24.9 0 45.2 20.2 45.2 45.2 0 24.9-20.2 45.2-45.2 45.2H406.8v60.8c0 25.2 20.5 45.7 45.7 45.7h1015c25.2 0 45.7-20.5 45.7-45.7v-212c0-25.2-20.5-45.7-45.7-45.7zm-276 187.4c-19.8 0-35.8-16-35.8-35.8 0-19.8 16-35.8 35.8-35.8 19.7 0 35.8 16 35.8 35.8-.1 19.8-16.1 35.8-35.8 35.8zm151.9 0c-19.7.9-36.5-14.3-37.4-34-.9-19.7 14.3-36.5 34.1-37.4 19.7-.9 36.5 14.3 37.4 34.1.8 19.6-14.4 36.4-34.1 37.3z" id="Layer_12"/>
    <path class="st0" d="M973.1 323.5H406.8v90.3h566.3c24.9 0 45.2-20.2 45.2-45.2 0-24.9-20.2-45.1-45.2-45.1zm0 394.2H406.8V808h566.3c24.9 0 45.2-20.2 45.2-45.2 0-24.9-20.2-45.1-45.2-45.1zm0 394.3H406.8v90.3h566.3c24.9 0 45.2-20.2 45.2-45.2 0-24.9-20.2-45.1-45.2-45.1zm0 394.2H406.8v90.3h566.3c24.9 0 45.2-20.2 45.2-45.2 0-24.9-20.2-45.1-45.2-45.1zm370.3-1101.9c19.7-.9 35-17.7 34-37.4s-17.7-35-37.4-34c-19.7.9-35 17.7-34 37.4s17.6 35 37.4 34zm-3.4 322.9c-19.7.9-35 17.7-34 37.4s17.7 35 37.4 34 35-17.7 34-37.4c-.9-19.7-17.6-35-37.4-34zm-148.6 394.2c-19.7 0-35.8 16-35.8 35.8 0 19.7 16 35.8 35.8 35.8s35.8-16 35.8-35.8c0-19.8-16-35.8-35.8-35.8zm0-788.5c-19.7 0-35.8 16-35.8 35.8s16 35.8 35.8 35.8 35.8-16 35.8-35.8-16-35.8-35.8-35.8zm0 1182.7c-19.7 0-35.8 16-35.8 35.8s16 35.8 35.8 35.8 35.8-16 35.8-35.8-16-35.8-35.8-35.8zm148.6.1c-19.7.9-35 17.7-34 37.4s17.7 35 37.4 34c19.7-.9 35-17.7 34-37.4s-17.6-35-37.4-34zm-148.6-788.6c-19.7 0-35.8 16-35.8 35.8s16 35.8 35.8 35.8 35.8-16 35.8-35.8-16-35.8-35.8-35.8zm148.6 394.3c-19.7.9-35 17.7-34 37.4.9 19.7 17.7 35 37.4 34s35-17.7 34-37.4c-.9-19.7-17.6-34.9-37.4-34z" id="Layer_18"/>
    <g id="STROKES">
        <path class="st1" d="M1467.5 1703.1h-1015c-25.2 0-45.7-20.5-45.7-45.7v-211.9c0-25.2 20.5-45.7 45.7-45.7h1015c25.2 0 45.7 20.5 45.7 45.7v211.9c0 25.2-20.5 45.7-45.7 45.7z"/>
        <path class="st1" d="M973.1 1596.5H406.8v-90.3h566.3c24.9 0 45.2 20.2 45.2 45.2 0 24.9-20.2 45.1-45.2 45.1z"/>
        <circle class="st1" cx="1191.4" cy="1551.4" r="35.8"/>
        <ellipse transform="rotate(-2.675 1341.61 1551.422) scale(.99999)" class="st1" cx="1341.7" cy="1551.4" rx="35.8" ry="35.8"/>
        <path class="st1" d="M1467.5 1308.8h-1015c-25.2 0-45.7-20.5-45.7-45.7v-211.9c0-25.2 20.5-45.7 45.7-45.7h1015c25.2 0 45.7 20.5 45.7 45.7v211.9c0 25.2-20.5 45.7-45.7 45.7z"/>
        <path class="st1" d="M973.1 1202.3H406.8V1112h566.3c24.9 0 45.2 20.2 45.2 45.2 0 24.9-20.2 45.1-45.2 45.1z"/>
        <circle class="st1" cx="1191.4" cy="1157.1" r="35.8"/>
        <ellipse transform="rotate(-2.675 1341.63 1157.176) scale(.99999)" class="st1" cx="1341.7" cy="1157.1" rx="35.8" ry="35.8"/>
        <path class="st1" d="M1467.5 914.5h-1015c-25.2 0-45.7-20.5-45.7-45.7V656.9c0-25.2 20.5-45.7 45.7-45.7h1015c25.2 0 45.7 20.5 45.7 45.7v211.9c0 25.3-20.5 45.7-45.7 45.7z"/>
        <path class="st1" d="M973.1 808H406.8v-90.3h566.3c24.9 0 45.2 20.2 45.2 45.2 0 24.9-20.2 45.1-45.2 45.1z"/>
        <circle class="st1" cx="1191.4" cy="762.9" r="35.8"/>
        <ellipse transform="rotate(-2.675 1341.649 762.93) scale(.99999)" class="st1" cx="1341.7" cy="762.9" rx="35.8" ry="35.8"/>
        <path class="st1" d="M1467.5 520.3h-1015c-25.2 0-45.7-20.5-45.7-45.7V262.7c0-25.2 20.5-45.7 45.7-45.7h1015c25.2 0 45.7 20.5 45.7 45.7v211.9c0 25.2-20.5 45.7-45.7 45.7z"/>
        <path class="st1" d="M973.1 413.8H406.8v-90.3h566.3c24.9 0 45.2 20.2 45.2 45.2 0 24.9-20.2 45.1-45.2 45.1z"/>
        <circle class="st1" cx="1191.4" cy="368.6" r="35.8"/>
        <ellipse transform="rotate(-2.675 1341.667 368.681) scale(.99999)" class="st1" cx="1341.7" cy="368.6" rx="35.8" ry="35.8"/>
    </g>
</svg>
