<?xml version="1.0" ?><!DOCTYPE svg  PUBLIC '-//W3C//DTD SVG 1.1//EN'  'http://www.w3.org/Graphics/SVG/1.1/DTD/svg11.dtd'><svg enable-background="new 0 0 128 128" id="Слой_1" version="1.1" viewBox="0 0 128 128" xml:space="preserve" xmlns="http://www.w3.org/2000/svg" xmlns:xlink="http://www.w3.org/1999/xlink"><g><path d="M6,104H2c0,9.4,7.6,17,17,17h107V17H21l0-15h-2C9.6,2,2,9.6,2,19v85L6,104c0-7.2,5.8-13,13-13h2l0-70h101   v96H19C11.8,117,6,111.2,6,104z M17,46.5c0,17.5,0,35,0,40.6c-4.4,0.5-8.3,2.7-11,5.9V19c0-6.5,4.8-11.9,11-12.8V46.5z" fill="#3EBBC4"/><path d="M27,2v10h87.4l11.7-5l-11.7-5H27z M31,6h6v2h-6V6z M113.6,8H41V6h72.6l2.3,1L113.6,8z" fill="#3EBBC4"/><polygon fill="#3EBBC4" points="46.5,72.5 46.5,102 95.5,102 95.5,72.5 91.5,72.5 91.5,98 50.5,98 50.5,72.5  "/><polygon fill="#3EBBC4" points="84,43 84,50.2 71,37.2 39.6,68.6 42.4,71.4 71,42.8 88,59.8 88,47 91.5,47 91.5,63.3 99.6,71.4    102.4,68.6 95.5,61.7 95.5,43  "/></g></svg>