<?xml version="1.0" ?><svg height="32" id="icon" viewBox="0 0 32 32" width="32" xmlns="http://www.w3.org/2000/svg"><defs><style>.cls-1{fill:none;}</style></defs><title/><rect height="4" width="2" x="8" y="8"/><rect height="4" width="2" x="8" y="14"/><rect height="4" width="2" x="14" y="8"/><rect height="4" width="2" x="14" y="14"/><rect height="4" width="2" x="8" y="20"/><rect height="4" width="2" x="14" y="20"/><path d="M30,14a2,2,0,0,0-2-2H22V4a2,2,0,0,0-2-2H4A2,2,0,0,0,2,4V30H30ZM4,4H20V28H4ZM22,28V14h6V28Z"/><rect class="cls-1" data-name="&lt;Transparent Rectangle&gt;" height="32" id="_Transparent_Rectangle_" width="32"/></svg>