<?xml version="1.0"?>
<svg xmlns="http://www.w3.org/2000/svg" xmlns:xlink="http://www.w3.org/1999/xlink" version="1.1" id="Layer_1" x="0px" y="0px" viewBox="0 0 512 512" style="enable-background:new 0 0 512 512;" xml:space="preserve" width="512px" height="512px" class=""><g><path style="fill:#D29B6E;" d="M122.602,221.795v39.491c0,6.006-3.917,11.31-9.659,13.077l-59.957,18.448  c-11.481,3.534-19.316,14.141-19.316,26.154v99.507c0,18.891,15.314,34.205,34.205,34.205h17.102h179.574V221.795H122.602z" data-original="#D29B6E"/><path style="fill:#F88448" d="M170.489,324.409c-33.108,0-62.297-17.379-79.072-43.422l-38.43,11.825  c-11.481,3.533-19.316,14.14-19.316,26.153v99.507c0,18.891,15.314,34.205,34.205,34.205h17.102h179.574v-222.33  C264.551,282.081,222.223,324.409,170.489,324.409z" data-original="#59D8FF" class="" data-old_color="#59D8FF"/><g>
	<path style="fill:#F88448" d="M264.551,230.347c0,51.734-42.328,94.063-94.063,94.063c-33.108,0-62.297-17.379-79.072-43.422   l-16.936,5.211c19.268,33.045,54.998,55.313,96.008,55.313c39.669,0,74.39-20.843,94.063-52.111V230.347z" data-original="#00C3F0" class="" data-old_color="#FD935B"/>
	<path style="fill:#F88448" d="M179.04,409.921H93.528c-4.722,0-8.551-3.829-8.551-8.551v-51.307L38.484,303.57   c-3.03,4.438-4.814,9.745-4.814,15.395v99.507c0,18.891,15.314,34.205,34.205,34.205h17.102h119.716v-17.102   C204.693,421.406,193.208,409.921,179.04,409.921z" data-original="#00C3F0" class="" data-old_color="#FD935B"/>
</g><path style="fill:#F0C087;" d="M247.449,161.937h-5.544l-3.007-59.858H102.079l-3.01,59.858h-5.541  c-7.084,0-12.827,5.743-12.827,12.827v17.102c0,7.084,5.743,12.827,12.827,12.827h12.382l1.39,8.683  c1.045,6.531,4.421,12.463,9.502,16.698l27.457,22.881c3.688,3.073,8.337,4.757,13.139,4.757h26.183c4.8,0,9.45-1.684,13.139-4.757  l27.457-22.881c5.082-4.234,8.457-10.166,9.502-16.698l1.39-8.683h12.381c7.084,0,12.827-5.743,12.827-12.827v-17.102  C260.276,167.681,254.532,161.937,247.449,161.937z" data-original="#F0C087" class=""/><path style="fill:#E6AF78;" d="M256.518,165.695c-1.161-1.16-2.543-2.099-4.077-2.749c-1.535-0.649-3.223-1.008-4.993-1.008h-5.545  l0,0l-3.007-59.858H102.078l-3.01,59.858h-5.54c-7.084,0-12.827,5.743-12.827,12.827v17.102c0,7.084,5.743,12.827,12.827,12.827  h12.382l1.39,8.683c1.045,6.532,4.421,12.463,9.502,16.698l27.456,22.88c3.689,3.074,8.337,4.758,13.139,4.758h10.811  l-11.749-35.247c-2.035-6.106-3.073-12.499-3.073-18.933v-46.375c0-4.545,3.57-8.106,8.096-8.524c4.31-0.399,8.53-1.421,12.43-3.166  c10.564,4.731,23.557,4.744,34.138,0.029l2.38,14.25c2.271,13.603,14.042,23.57,27.833,23.57h15.173  c2.399,0,4.665-0.546,6.839-1.325v-7.226C260.276,171.222,258.839,168.016,256.518,165.695z" data-original="#E6AF78" class=""/><path style="fill:#694B4B;" d="M273.102,100.369c0-9.475-6.456-17.371-15.185-19.732c0.949-2.362,1.503-4.929,1.503-7.632  c0-11.335-9.188-20.523-20.523-20.523c-0.418,0-0.807,0.098-1.219,0.123c-2.793-8.017-10.336-13.805-19.304-13.805  c-2.203,0-4.292,0.41-6.267,1.076c-4.38-4.829-10.643-7.917-17.676-7.917c-1.814,0-3.564,0.241-5.262,0.622  c-4.896-4.596-11.436-7.463-18.681-7.463c-7.245,0-13.786,2.867-18.681,7.463c-1.698-0.382-3.449-0.622-5.262-0.622  c-6.528,0-12.432,2.628-16.752,6.866c-0.119-0.002-0.231-0.025-0.351-0.025c-8.968,0-16.511,5.789-19.304,13.805  c-0.412-0.025-0.802-0.123-1.219-0.123c-11.335,0-20.523,9.188-20.523,20.523c0,2.702,0.554,5.269,1.502,7.632  c-8.728,2.361-15.184,10.257-15.184,19.732c0,5.28,2.05,10.044,5.326,13.682c-3.276,3.636-5.326,8.402-5.326,13.682  c0,7.596,4.176,14.136,10.318,17.667c0.305,9.178,7.793,16.538,17.046,16.538h7.476c3.343,0,6.197-2.418,6.748-5.716l4.774-28.642  c0.513,0.038,1.003,0.154,1.525,0.154c7.148,0,13.427-3.662,17.102-9.204c3.675,5.542,9.955,9.204,17.102,9.204  s13.427-3.662,17.102-9.204c3.675,5.542,9.955,9.204,17.102,9.204s13.427-3.662,17.102-9.204c3.675,5.542,9.955,9.204,17.102,9.204  c0.522,0,1.012-0.115,1.525-0.154l4.774,28.642c0.55,3.299,3.404,5.716,6.748,5.716h9.186c9.445,0,17.102-7.658,17.102-17.102  c0-0.177-0.047-0.342-0.052-0.518c5.192-3.703,8.604-9.715,8.604-16.584c0-5.28-2.05-10.045-5.326-13.682  C271.052,110.413,273.102,105.649,273.102,100.369z" data-original="#694B4B"/><path style="fill:#5A4146;" d="M165.481,112.832c-8.017-2.793-13.805-10.336-13.805-19.304c0-5.28,2.05-10.045,5.326-13.682  c-3.276-3.636-5.326-8.402-5.326-13.682c0-9.475,6.456-17.371,15.185-19.732c-0.949-2.362-1.502-4.929-1.502-7.632  c0-5.272,2.045-10.029,5.311-13.664c-0.062,0-0.119-0.018-0.181-0.018c-7.245,0-13.786,2.867-18.681,7.463  c-1.698-0.382-3.449-0.622-5.262-0.622c-6.528,0-12.432,2.628-16.752,6.866c-0.119-0.002-0.231-0.025-0.351-0.025  c-8.968,0-16.511,5.789-19.304,13.805c-0.412-0.025-0.802-0.123-1.219-0.123c-11.335,0-20.523,9.188-20.523,20.523  c0,2.702,0.554,5.269,1.502,7.632c-8.729,2.361-15.185,10.257-15.185,19.732c0,5.28,2.05,10.044,5.326,13.682  c-3.276,3.636-5.326,8.402-5.326,13.682c0,7.596,4.176,14.136,10.318,17.667c0.305,9.178,7.793,16.538,17.046,16.538h7.476  c3.343,0,6.197-2.418,6.748-5.716l4.774-28.642c0.513,0.038,1.003,0.154,1.525,0.154c7.148,0,13.427-3.662,17.102-9.204  c3.675,5.542,9.955,9.204,17.102,9.204c4.72,0,8.977-1.706,12.441-4.388c-2.343-2.44-3.89-5.637-3.89-9.294  C165.358,113.633,165.443,113.24,165.481,112.832z" data-original="#5A4146"/><path style="fill:#E6AF78;" d="M153.386,409.921h25.653c14.168,0,25.653,11.485,25.653,25.653v17.102h-51.307V409.921z" data-original="#E6AF78" class=""/><path style="fill:#F88448" d="M264.551,230.347c0,51.734-42.328,94.063-94.063,94.063c-33.108,0-62.297-17.379-79.072-43.422  l-25.315,7.789c20.527,36.521,59.595,61.286,104.387,61.286c38.158,0,72.126-18.01,94.063-45.906V230.347z" data-original="#00C3F0" class="" data-old_color="#FD935B"/><path style="fill:#D5DCED;" d="M478.33,392.818H221.795c-14.168,0-25.653-11.485-25.653-25.653V213.244  c0-14.168,11.485-25.653,25.653-25.653H478.33c14.168,0,25.653,11.485,25.653,25.653v153.921  C503.983,381.333,492.498,392.818,478.33,392.818z" data-original="#D5DCED" class=""/><path style="fill:#AFB9D2;" d="M401.37,452.676l-15.124-113.426c-1.133-8.497-8.38-14.842-16.953-14.842h-38.462  c-8.571,0-15.82,6.345-16.953,14.842l-15.123,113.426H401.37z" data-original="#AFB9D2" class=""/><circle style="fill:#FFFFFF;" cx="350.063" cy="273.102" r="17.102" data-original="#FFFFFF" class=""/><path style="fill:#FCC5A9" d="M495.432,486.881H16.568c-4.722,0-8.551-3.829-8.551-8.551v-17.102c0-4.722,3.829-8.551,8.551-8.551  h478.864c4.722,0,8.551,3.829,8.551,8.551v17.102C503.983,483.052,500.155,486.881,495.432,486.881z" data-original="#F5DCB4" class="active-path" data-old_color="#FCCAB0"/><path d="M478.33,400.835c18.566,0,33.67-15.105,33.67-33.67V213.244c0-18.566-15.105-33.67-33.67-33.67H267.437v-3.955  c0-5.193-1.837-9.961-4.89-13.7c2.265-2.772,3.845-6.092,4.521-9.69c8.581-5.059,14.051-14.325,14.051-24.497  c0-4.804-1.237-9.499-3.555-13.682c2.317-4.183,3.555-8.877,3.555-13.682c0-10.13-5.427-19.314-13.842-24.376  c0.107-0.992,0.16-1.988,0.16-2.988c0-14.409-10.734-26.359-24.626-28.272c-5.072-8.523-14.305-13.949-24.437-13.949  c-1.301,0-2.615,0.1-3.931,0.3c-5.659-4.582-12.728-7.141-20.012-7.141c-0.973,0-1.948,0.049-2.936,0.148  c-6.084-4.531-13.407-6.988-21.006-6.988s-14.922,2.457-21.007,6.988c-0.989-0.098-1.964-0.148-2.936-0.148  c-7.303,0-14.259,2.457-19.908,6.981c-9.011,0.899-17.031,6.08-21.63,13.81c-13.892,1.912-24.626,13.862-24.626,28.271  c0,0.999,0.053,1.996,0.16,2.988c-8.414,5.062-13.842,14.246-13.842,24.376c0,4.805,1.237,9.499,3.555,13.682  c-2.318,4.183-3.555,8.878-3.555,13.682c0,10.172,5.47,19.438,14.052,24.497c0.377,2.008,1.044,3.926,1.946,5.714  c-5.532,3.937-9.157,10.384-9.157,17.675v13.682c0,11.964,9.733,21.699,21.699,21.699h3.563l0.583,3.642  c1.351,8.446,5.714,16.114,12.286,21.591l2.916,2.43v22.625c0,2.502-1.608,4.679-4,5.414L50.628,285.15  c-14.938,4.597-24.975,18.186-24.975,33.816v99.507c0,9.887,3.426,18.985,9.14,26.188H16.568C7.432,444.66,0,452.092,0,461.228  v17.102c0,9.136,7.432,16.568,16.568,16.568h478.864c9.136,0,16.568-7.432,16.568-16.568v-17.102  c0-9.136-7.432-16.568-16.568-16.568h-87.044l-5.844-43.825H478.33z M495.967,213.244v153.921c0,9.725-7.912,17.637-17.637,17.637  h-76.96c-0.324,0-0.64,0.025-0.955,0.062l-6.223-46.672c-1.657-12.427-12.361-21.799-24.898-21.799h-38.462  c-12.537,0-23.242,9.372-24.899,21.799l-6.223,46.672c-0.313-0.037-0.631-0.062-0.955-0.062h-76.96  c-9.725,0-17.637-7.912-17.637-17.637V213.244c0-9.725,7.912-17.637,17.637-17.637H478.33  C488.055,195.608,495.967,203.519,495.967,213.244z M272.541,444.66c0.012-0.177,0.027-0.354,0.027-0.534v-43.29h25.012  l-5.844,43.825H272.541z M247.204,179.574l1.41-8.809c1.662,0.989,2.79,2.783,2.79,4.854v3.955H247.204z M85.998,108.685  c-1.49-1.654-3.265-4.439-3.265-8.316c0-5.586,3.808-10.518,9.262-11.994c2.21-0.599,4.06-2.113,5.08-4.163  c1.022-2.049,1.118-4.438,0.265-6.563c-0.615-1.527-0.926-3.09-0.926-4.643c0-6.798,5.452-12.347,12.214-12.503  c0.341,0.046,0.684,0.084,1.033,0.105c3.59,0.206,6.868-1.977,8.048-5.365c1.727-4.958,6.317-8.314,11.475-8.423  c0.155,0.011,0.311,0.018,0.468,0.02c2.167,0.026,4.221-0.788,5.755-2.293c3.006-2.948,6.962-4.572,11.138-4.572  c1.081,0,2.227,0.14,3.503,0.426c2.591,0.583,5.308-0.156,7.247-1.976c3.635-3.411,8.32-5.29,13.194-5.29  c4.874,0,9.559,1.879,13.193,5.291c1.938,1.82,4.654,2.56,7.247,1.976c1.276-0.288,2.422-0.426,3.503-0.426  c4.477,0,8.646,1.878,11.739,5.287c2.142,2.361,5.479,3.228,8.499,2.21c1.31-0.441,2.523-0.656,3.706-0.656  c5.262,0,9.978,3.386,11.734,8.425c1.18,3.387,4.46,5.579,8.048,5.365c0.327-0.019,0.649-0.055,1.031-0.105  c6.762,0.155,12.215,5.705,12.215,12.503c0,1.553-0.311,3.116-0.925,4.642c-0.854,2.125-0.758,4.514,0.264,6.564  c1.022,2.05,2.871,3.565,5.082,4.163c5.452,1.476,9.261,6.408,9.261,11.994c0,3.877-1.777,6.662-3.265,8.316  c-2.747,3.05-2.747,7.682,0,10.732c1.49,1.654,3.265,4.439,3.265,8.316c0,5.262-3.386,9.978-8.426,11.733  c-3.474,1.211-5.679,4.632-5.346,8.296c0.022,0.246,0.052,0.49,0.086,0.733c-0.106,2.434-1.81,4.545-4.217,5.185  c-0.257,0.068-7.924,0.241-7.924,0.241l-4.61-27.66c-0.682-4.091-4.38-6.986-8.506-6.676c-0.372,0.028-0.736,0.073-1.102,0.123  l-0.047,0.006c-4.108-0.073-7.908-2.16-10.199-5.616c-1.486-2.239-3.993-3.586-6.681-3.586l0,0c-2.687,0-5.196,1.347-6.681,3.585  c-2.333,3.518-6.228,5.618-10.422,5.618c-4.193,0-8.088-2.1-10.422-5.618c-1.486-2.239-3.993-3.586-6.681-3.586l0,0  c-2.687,0-5.196,1.347-6.681,3.585c-2.333,3.518-6.228,5.618-10.422,5.618c-4.193,0-8.088-2.1-10.422-5.618  c-1.486-2.239-3.993-3.586-6.681-3.586l0,0c-2.687,0-5.196,1.347-6.681,3.585c-2.292,3.456-6.092,5.543-10.199,5.616l-0.047-0.006  c-0.365-0.05-0.731-0.095-1.103-0.123c-4.125-0.315-7.823,2.586-8.505,6.676l-4.609,27.663c0,0-7.666-0.172-7.923-0.241  c-2.408-0.64-4.113-2.753-4.217-5.187c0.032-0.243,0.062-0.485,0.084-0.731c0.333-3.664-1.872-7.085-5.346-8.296  c-5.04-1.756-8.426-6.471-8.426-11.733c0-3.877,1.777-6.662,3.265-8.316C88.745,116.367,88.745,111.735,85.998,108.685z   M95.238,194.966c-3.123,0-5.665-2.541-5.665-5.665v-13.682c0-2.07,1.128-3.865,2.79-4.854l3.873,24.201H95.238z M108.47,169.954  h1.085c7.292,0,13.455-5.222,14.656-12.415l3.714-22.289c4.292-0.812,8.314-2.598,11.779-5.2c4.867,3.655,10.836,5.699,17.102,5.699  c6.265,0,12.235-2.045,17.102-5.699c4.867,3.655,10.836,5.699,17.102,5.699c6.265,0,12.235-2.045,17.102-5.699  c3.464,2.602,7.487,4.387,11.779,5.2l3.714,22.29c0.875,5.25,4.401,9.438,9.074,11.324l-1.713,10.71h-9.172  c-18.566,0-33.67,15.105-33.67,33.67v35.58c-1.443,0.563-2.985,0.869-4.544,0.869h-26.185c-2.92,0-5.763-1.029-8.006-2.899  l-27.457-22.881c-3.594-2.995-5.979-7.187-6.718-11.806L108.47,169.954z M115.302,282.026c9.163-2.819,15.318-11.154,15.318-20.739  v-9.264l8.506,7.089c5.119,4.266,11.607,6.615,18.271,6.615h26.185c1.525,0,3.045-0.13,4.544-0.374v51.584  c-4.704,0.769-9.486,1.166-14.286,1.166c-26.743,0-51.963-12.236-68.568-32.99L115.302,282.026z M41.687,418.472v-99.507  c0-8.547,5.489-15.978,13.657-18.492l33.647-10.352c19.455,27.569,51.127,44.014,84.849,44.014c4.789,0,9.564-0.337,14.286-0.988  v34.018c0,18.566,15.105,33.67,33.67,33.67h34.739v43.29c0,0.181,0.015,0.357,0.027,0.534H212.71v-9.086  c0-18.566-15.105-33.67-33.67-33.67H93.528c-0.295,0-0.534-0.239-0.534-0.534v-51.307c0-4.427-3.589-8.017-8.017-8.017  c-4.427,0-8.017,3.589-8.017,8.017v51.307c0,9.136,7.432,16.568,16.568,16.568h51.841v26.722H67.875  C53.435,444.66,41.687,432.911,41.687,418.472z M161.403,444.66v-26.722h17.637c9.725,0,17.637,7.912,17.637,17.637v9.086H161.403z   M495.967,461.228v17.102c0,0.295-0.239,0.534-0.534,0.534H16.568c-0.295,0-0.534-0.239-0.534-0.534v-17.102  c0-0.295,0.239-0.534,0.534-0.534h478.864C495.727,460.693,495.967,460.933,495.967,461.228z M307.912,444.66l13.913-104.349  c0.6-4.496,4.471-7.885,9.007-7.885h38.462c4.535,0,8.407,3.389,9.007,7.885l13.914,104.349H307.912z" data-original="#000000"/><path d="M350.063,298.221c13.851,0,25.119-11.268,25.119-25.119s-11.268-25.119-25.119-25.119  c-13.851,0-25.119,11.268-25.119,25.119C324.944,286.953,336.212,298.221,350.063,298.221z M350.063,264.017  c5.01,0,9.086,4.076,9.086,9.086c0,5.01-4.076,9.086-9.086,9.086c-5.01,0-9.086-4.076-9.086-9.086S345.053,264.017,350.063,264.017z  " data-original="#000000"/></g> </svg>
