<?xml version="1.0" encoding="iso-8859-1"?>
<!-- Uploaded to: SVG Repo, www.svgrepo.com, Generator: SVG Repo Mixer Tools -->
<svg height="800px" width="800px" version="1.1" id="Layer_1" xmlns="http://www.w3.org/2000/svg" xmlns:xlink="http://www.w3.org/1999/xlink" 
	 viewBox="0 0 507.9 507.9" xml:space="preserve">
<path style="fill:#56ACE0;" d="M382.3,28.2H125.7c-7.8,0-14.1,6.3-14.1,14.1v423.3c0,7.8,6.3,14.1,14.1,14.1h256.5
	c7.8,0,14.1-6.3,14.1-14.1V42.3C396.4,34.6,390,28.2,382.3,28.2z"/>
<path style="fill:#FFFFFF;" d="M325.8,84.7H182.2c-7.8,0-14.1,6.3-14.1,14.1v12.3h65.7c7.8,0,14.1,6.3,14.1,14.1
	s-6.3,14.1-14.1,14.1h-65.7v30.3h23.3c7.8,0,14.1,6.3,14.1,14.1s-6.3,14.1-14.1,14.1h-23.3v12.3c0,7.8,6.3,14.1,14.1,14.1h143.6
	c7.8,0,14.1-6.3,14.1-14.1V98.8C339.9,91,333.6,84.7,325.8,84.7z"/>
<g>
	<path style="fill:#194F82;" d="M176.8,293H154c-7.8,0-14.1,6.3-14.1,14.1c0,7.8,6.3,14.1,14.1,14.1h22.9c7.8,0,14.1-6.3,14.1-14.1
		C191,299.4,184.6,293,176.8,293z"/>
	<path style="fill:#194F82;" d="M265.4,293h-22.9c-7.8,0-14.1,6.3-14.1,14.1c0,7.8,6.3,14.1,14.1,14.1h22.9
		c7.8,0,14.1-6.3,14.1-14.1C279.6,299.4,273.2,293,265.4,293z"/>
	<path style="fill:#194F82;" d="M354,293h-22.9c-7.8,0-14.1,6.3-14.1,14.1c0,7.8,6.3,14.1,14.1,14.1H354c7.8,0,14.1-6.3,14.1-14.1
		C368.2,299.4,361.8,293,354,293z"/>
	<path style="fill:#194F82;" d="M176.8,358.3H154c-7.8,0-14.1,6.3-14.1,14.1c0,7.8,6.3,14.1,14.1,14.1h22.9
		c7.8,0,14.1-6.3,14.1-14.1C191,364.7,184.6,358.3,176.8,358.3z"/>
	<path style="fill:#194F82;" d="M265.4,358.3h-22.9c-7.8,0-14.1,6.3-14.1,14.1c0,7.8,6.3,14.1,14.1,14.1h22.9
		c7.8,0,14.1-6.3,14.1-14.1C279.6,364.7,273.2,358.3,265.4,358.3z"/>
	<path style="fill:#194F82;" d="M354,358.3h-22.9c-7.8,0-14.1,6.3-14.1,14.1c0,7.8,6.3,14.1,14.1,14.1H354c7.8,0,14.1-6.3,14.1-14.1
		C368.2,364.7,361.8,358.3,354,358.3z"/>
	<path style="fill:#194F82;" d="M176.8,423.6H154c-7.8,0-14.1,6.3-14.1,14.1c0,7.8,6.3,14.1,14.1,14.1h22.9
		c7.8,0,14.1-6.3,14.1-14.1C191,430,184.6,423.6,176.8,423.6z"/>
	<path style="fill:#194F82;" d="M265.4,423.6h-22.9c-7.8,0-14.1,6.3-14.1,14.1c0,7.8,6.3,14.1,14.1,14.1h22.9
		c7.8,0,14.1-6.3,14.1-14.1C279.6,430,273.2,423.6,265.4,423.6z"/>
	<path style="fill:#194F82;" d="M354,423.6h-22.9c-7.8,0-14.1,6.3-14.1,14.1c0,7.8,6.3,14.1,14.1,14.1H354c7.8,0,14.1-6.3,14.1-14.1
		C368.2,430,361.8,423.6,354,423.6z"/>
	<path style="fill:#194F82;" d="M382.3,0H125.7c-23.3,0-42.3,19-42.3,42.3v423.3c0,23.3,19,42.3,42.3,42.3h256.5
		c23.3,0,42.3-19,42.3-42.3V42.3C424.6,19,405.6,0,382.3,0z M396.4,465.7c0,7.8-6.3,14.1-14.1,14.1H125.7c-7.8,0-14.1-6.3-14.1-14.1
		V42.3c0-7.8,6.3-14.1,14.1-14.1h256.5c7.8,0,14.1,6.3,14.1,14.1v423.4H396.4z"/>
	<path style="fill:#194F82;" d="M325.8,56.4H182.2c-23.3,0-42.3,19-42.3,42.3v111.4c0,23.3,19,42.3,42.3,42.3h143.6
		c23.3,0,42.3-19,42.3-42.3V98.8C368.2,75.4,349.2,56.4,325.8,56.4z M339.9,210.2c0,7.8-6.3,14.1-14.1,14.1H182.2
		c-7.8,0-14.1-6.3-14.1-14.1v-12.3h23.3c7.8,0,14.1-6.3,14.1-14.1s-6.3-14.1-14.1-14.1h-23.3v-30.3h65.7c7.8,0,14.1-6.3,14.1-14.1
		s-6.3-14.1-14.1-14.1h-65.7V98.9c0-7.8,6.3-14.1,14.1-14.1h143.6c7.8,0,14.1,6.3,14.1,14.1V210.2z"/>
</g>
<path style="fill:#FFC10D;" d="M198.2,196.1h113.7v-83.2h-71.3c4.4,2.4,7.3,7,7.3,12.3c0,7.8-6.3,14.1-14.1,14.1h-37.3v31.3
	c5.3,2,9.1,7.1,9.1,13.1C205.5,189.1,202.5,193.7,198.2,196.1z"/>
</svg>